<?xml version="1.0" encoding="UTF-8" standalone="no"?>
<!-- Created with Inkscape (http://www.inkscape.org/) -->

<svg
   xmlns:dc="http://purl.org/dc/elements/1.1/"
   xmlns:cc="http://creativecommons.org/ns#"
   xmlns:rdf="http://www.w3.org/1999/02/22-rdf-syntax-ns#"
   xmlns:svg="http://www.w3.org/2000/svg"
   xmlns="http://www.w3.org/2000/svg"
   xmlns:sodipodi="http://sodipodi.sourceforge.net/DTD/sodipodi-0.dtd"
   xmlns:inkscape="http://www.inkscape.org/namespaces/inkscape"
   width="600"
   height="600"
   id="svg3049"
   version="1.1"
   inkscape:version="0.48.1 r9760"
   sodipodi:docname="binary_kitchen.svg"
   inkscape:export-filename="/home/flo/Documents/binary kitchen/binary_kitchen.png"
   inkscape:export-xdpi="90"
   inkscape:export-ydpi="90">
  <defs
     id="defs3051" />
  <sodipodi:namedview
     id="base"
     pagecolor="#000000"
     bordercolor="#666666"
     borderopacity="1.0"
     inkscape:pageopacity="0"
     inkscape:pageshadow="2"
     inkscape:zoom="0.93025308"
     inkscape:cx="389.83345"
     inkscape:cy="250.10423"
     inkscape:document-units="px"
     inkscape:current-layer="layer1"
     showgrid="false"
     inkscape:window-width="1920"
     inkscape:window-height="1033"
     inkscape:window-x="0"
     inkscape:window-y="25"
     inkscape:window-maximized="1"
     showguides="true"
     inkscape:guide-bbox="true" />
  <metadata
     id="metadata3054">
    <rdf:RDF>
      <cc:Work
         rdf:about="">
        <dc:format>image/svg+xml</dc:format>
        <dc:type
           rdf:resource="http://purl.org/dc/dcmitype/StillImage" />
        <dc:title></dc:title>
      </cc:Work>
    </rdf:RDF>
  </metadata>
  <g
     inkscape:groupmode="layer"
     id="layer2"
     inkscape:label="BG">
    <rect
       transform="translate(0,-452.36218)"
       style="fill:#003377;fill-opacity:1;fill-rule:nonzero;stroke:none"
       id="rect4126"
       width="600"
       height="600"
       x="0"
       y="452.36218"
       ry="3.4089758" />
  </g>
  <g
     inkscape:label="Layer 1"
     inkscape:groupmode="layer"
     id="layer1"
     transform="translate(0,-452.36218)">
    <g
       id="g4613"
       transform="matrix(1.0922782,0,0,1.0922782,-27.94414,-75.796416)"
       style="fill:#ccbbbb;fill-opacity:1">
      <g
         id="g4596"
         transform="translate(10.717852,0)"
         style="fill:#ccbbbb;fill-opacity:1">
        <path
           inkscape:connector-curvature="0"
           id="path4555"
           style="font-size:54.54985427999999814px;font-style:normal;font-variant:normal;font-weight:bold;font-stretch:normal;line-height:125%;letter-spacing:0px;word-spacing:0px;fill:#ccbbbb;fill-opacity:1;stroke:none;font-family:FreeMono;-inkscape-font-specification:FreeMono Bold"
           d="m 58.208866,961.01421 c 0,1.24222 0.591532,2.95764 3.904086,2.95764 l 17.450081,0 c 6.980023,0 11.653108,-3.78578 11.653108,-9.46444 0,-3.72663 -2.011201,-6.44766 -6.270204,-8.57716 2.60272,-2.0112 3.726626,-3.96325 3.726626,-6.68428 0,-5.61951 -4.909685,-9.7602 -11.593949,-9.7602 l -14.965662,0 c -2.070346,0 -3.904086,0.41407 -3.904086,2.95763 0,2.42527 1.715434,2.95764 3.904086,2.95764 l 0.887293,0 0,22.65554 -0.887293,0 c -2.188652,0 -3.904086,0.53237 -3.904086,2.95763 m 10.70666,-17.27262 0,-8.34055 7.867325,0 c 3.726623,0 5.974437,1.41967 5.974437,3.78578 0,2.72103 -2.898496,4.55477 -7.157494,4.55477 l -6.684268,0 m 16.385329,11.12074 c 0,2.12949 -2.011201,3.19425 -6.033586,3.19425 l -10.351743,0 0,-8.3997 7.985629,0 c 5.027985,0 8.3997,2.07035 8.3997,5.20545" />
        <path
           inkscape:connector-curvature="0"
           id="path4557"
           style="font-size:54.54985427999999814px;font-style:normal;font-variant:normal;font-weight:bold;font-stretch:normal;line-height:125%;letter-spacing:0px;word-spacing:0px;fill:#ccbbbb;fill-opacity:1;stroke:none;font-family:FreeMono;-inkscape-font-specification:FreeMono Bold"
           d="m 122.56391,961.01421 c 0,-2.48441 -1.83373,-2.95763 -3.90409,-2.95763 l -7.21664,0 0,-19.9345 -10.52919,0 c -2.188664,0 -3.963242,0.41407 -3.963242,2.95764 0,2.3661 1.774578,2.95763 3.963242,2.95763 l 4.61392,0 0,14.01923 -7.216654,0 c -2.306955,0 -3.904086,0.53237 -3.904086,2.95763 0,1.24222 0.59153,2.95764 3.904086,2.95764 l 20.348564,0 c 2.30697,0 3.90409,-0.70983 3.90409,-2.95764 m -11.94887,-33.89456 -6.98003,0 0,6.21105 6.98003,0 0,-6.21105" />
        <path
           inkscape:connector-curvature="0"
           id="path4559"
           style="font-size:54.54985427999999814px;font-style:normal;font-variant:normal;font-weight:bold;font-stretch:normal;line-height:125%;letter-spacing:0px;word-spacing:0px;fill:#ccbbbb;fill-opacity:1;stroke:none;font-family:FreeMono;-inkscape-font-specification:FreeMono Bold"
           d="m 126.41018,961.01421 c 0,2.24781 1.59713,2.95764 3.90408,2.95764 l 6.62512,0 c 2.07035,0 3.90409,-0.53238 3.90409,-2.95764 0,-2.48441 -1.83374,-2.95763 -3.90409,-2.95763 l -0.35491,0 0,-10.76582 c 2.78017,-3.01679 4.67307,-4.02239 7.3941,-4.02239 3.66747,0 5.32375,1.36051 5.32375,4.259 l 0,10.52921 c -2.30696,0 -3.60833,1.06475 -3.60833,2.95763 0,1.95204 1.30137,2.95764 3.96324,2.95764 l 5.2646,0 c 2.18865,0 3.90409,-0.59153 3.90409,-2.95764 0,-1.89288 -1.30137,-2.95763 -3.60832,-2.95763 l 0,-10.76582 c 0,-6.5068 -4.61392,-9.93767 -10.5292,-9.93767 -3.2534,0 -5.2646,0.88729 -8.10393,3.60832 l 0,-2.83933 -5.56037,0 c -2.30696,0 -3.96324,0.82814 -3.96324,2.95764 0,1.89288 1.30136,2.89848 3.60832,2.95763 l 0,14.01923 -0.35492,0 c -2.1295,0 -3.90408,0.53237 -3.90408,2.95763" />
        <path
           inkscape:connector-curvature="0"
           id="path4561"
           style="font-size:54.54985427999999814px;font-style:normal;font-variant:normal;font-weight:bold;font-stretch:normal;line-height:125%;letter-spacing:0px;word-spacing:0px;fill:#ccbbbb;fill-opacity:1;stroke:none;font-family:FreeMono;-inkscape-font-specification:FreeMono Bold"
           d="m 161.84404,956.93267 c 0,4.37731 4.79139,7.98563 10.64752,7.98563 3.49,0 6.98002,-0.82814 9.81936,-2.30696 l 0,1.36051 6.92087,0 c 2.18866,0 3.90409,-0.59153 3.90409,-2.95764 0,-2.3661 -1.59712,-2.95763 -3.90409,-2.95763 l -0.94643,0 0,-11.94887 c 0,-5.50121 -4.37732,-8.75462 -11.65311,-8.75462 -2.95763,0 -7.33495,0.76899 -10.17429,1.77458 -1.18306,0.41407 -1.77459,1.24221 -1.77459,2.48442 0,1.71543 1.24222,3.01679 2.8985,3.01679 1.89288,0 4.96884,-1.36051 9.22784,-1.36051 3.78577,0 5.50121,0.88729 5.50121,2.89849 l 0,1.36051 c -2.42526,-0.41407 -4.25901,-0.59153 -6.15189,-0.59153 -8.87291,0 -14.31499,4.85054 -14.31499,9.99683 m 20.52603,-0.94645 c -3.2534,2.0112 -6.56597,3.01679 -9.76021,3.01679 -2.54358,0 -4.49561,-1.00559 -4.49561,-2.30695 0,-2.2478 3.66747,-4.31816 7.68986,-4.31816 2.01119,0 4.19985,0.23661 6.56596,0.65068 l 0,2.95764" />
        <path
           inkscape:connector-curvature="0"
           id="path4563"
           style="font-size:54.54985427999999814px;font-style:normal;font-variant:normal;font-weight:bold;font-stretch:normal;line-height:125%;letter-spacing:0px;word-spacing:0px;fill:#ccbbbb;fill-opacity:1;stroke:none;font-family:FreeMono;-inkscape-font-specification:FreeMono Bold"
           d="m 219.9926,937.41224 c -2.89849,0 -5.14631,1.0056 -9.87853,4.55477 l 0,-3.84493 -7.98563,0 c -2.60272,0 -3.90408,1.12391 -3.90408,2.95764 0,2.2478 1.59713,2.95763 3.90408,2.95763 l 2.07036,0 0,14.01923 -3.43088,0 c -2.30695,0 -3.90408,0.53237 -3.90408,2.95763 0,2.24781 1.65628,2.95764 3.90408,2.95764 l 17.56839,0 c 2.18865,0 3.96324,-0.59153 3.96324,-2.95764 0,-2.42526 -1.71543,-2.95763 -3.96324,-2.95763 l -8.22224,0 0,-8.69547 c 5.61951,-4.61392 7.86733,-6.03359 9.76022,-6.03359 1.95204,0 2.66187,2.12951 4.61392,2.12951 1.59712,0 2.95764,-1.36052 2.95764,-3.0168 0,-2.72103 -4.37731,-5.02799 -7.45325,-5.02799" />
        <path
           inkscape:connector-curvature="0"
           id="path4565"
           style="font-size:54.54985427999999814px;font-style:normal;font-variant:normal;font-weight:bold;font-stretch:normal;line-height:125%;letter-spacing:0px;word-spacing:0px;fill:#ccbbbb;fill-opacity:1;stroke:none;font-family:FreeMono;-inkscape-font-specification:FreeMono Bold"
           d="m 234.17741,975.80241 0.59153,0 12.71786,0 c 2.1295,0 3.90409,-0.59153 3.90409,-2.95763 0,-2.42527 -1.65629,-2.95764 -3.90409,-2.95764 l -0.29576,0 13.60515,-25.84979 c 1.95203,-0.17745 3.07594,-1.24221 3.07594,-2.95763 0,-2.42526 -1.65628,-2.95764 -3.90408,-2.95764 l -5.44207,0 c -2.30695,0 -3.96324,0.82814 -3.96324,2.95764 0,1.89288 1.36052,2.95763 3.78578,2.95763 l -7.09833,13.19108 -6.74342,-13.19108 c 2.2478,-0.0592 3.49002,-1.1239 3.49002,-2.95763 0,-2.42526 -1.65629,-2.95764 -3.90409,-2.95764 l -5.32376,0 c -2.18865,0 -3.90408,0.88729 -3.90408,2.95764 0,1.65627 1.06475,2.72102 2.89848,2.95763 l 10.17429,19.75704 -3.2534,6.09275 -5.91529,0 c -2.18865,0 -3.90408,0.53237 -3.90408,2.95764 0,1.1239 0.65068,2.95763 3.31255,2.95763" />
      </g>
      <g
         id="g4604"
         transform="translate(-8.9315435,0)"
         style="fill:#ccbbbb;fill-opacity:1">
        <path
           inkscape:connector-curvature="0"
           id="path4567"
           style="font-size:54.54985427999999814px;font-style:normal;font-variant:normal;font-weight:bold;font-stretch:normal;line-height:125%;letter-spacing:0px;word-spacing:0px;fill:#ccbbbb;fill-opacity:1;stroke:none;font-family:FreeMono;-inkscape-font-specification:FreeMono Bold"
           d="m 326.49741,932.4434 c 0,-2.48441 -1.83374,-2.95763 -3.90409,-2.95763 l -8.87292,0 c -2.30695,0 -3.90409,0.53237 -3.90409,2.95763 0,2.42527 1.71544,2.95764 3.90409,2.95764 l 0.88729,0 0,22.65554 -0.88729,0 c -2.18865,0 -3.90409,0.53237 -3.90409,2.95763 0,1.24222 0.59153,2.95764 3.90409,2.95764 l 8.87292,0 c 2.30696,0 3.90409,-0.70983 3.90409,-2.95764 0,-2.48441 -1.83374,-2.95763 -3.90409,-2.95763 l -2.07035,0 0,-6.38851 3.54917,-3.01679 c 3.60832,1.1239 7.39411,6.86173 10.17429,15.32057 l 6.5068,0 c 2.30696,0 3.90409,-0.70983 3.90409,-2.95764 0,-2.48441 -1.83374,-2.95763 -3.90409,-2.95763 l -1.89288,0 c -2.72103,-6.80257 -6.38851,-11.71227 -9.99683,-13.60516 l 10.4109,-9.05038 c 2.42526,0 3.66747,-1.0056 3.66747,-2.95764 0,-2.3661 -1.59713,-2.95763 -3.90408,-2.95763 l -5.91529,0 c -2.30695,0 -3.90408,0.82814 -3.90408,3.01679 0,1.36052 0.59153,2.18866 1.83374,2.66187 l -10.52921,9.05038 0,-8.81377 2.07035,0 c 2.18865,0 3.90409,-0.53237 3.90409,-2.95764" />
        <path
           inkscape:connector-curvature="0"
           id="path4569"
           style="font-size:54.54985427999999814px;font-style:normal;font-variant:normal;font-weight:bold;font-stretch:normal;line-height:125%;letter-spacing:0px;word-spacing:0px;fill:#ccbbbb;fill-opacity:1;stroke:none;font-family:FreeMono;-inkscape-font-specification:FreeMono Bold"
           d="m 376.84519,961.01421 c 0,-2.48441 -1.83373,-2.95763 -3.90409,-2.95763 l -7.21664,0 0,-19.9345 -10.52919,0 c -2.18866,0 -3.96324,0.41407 -3.96324,2.95764 0,2.3661 1.77458,2.95763 3.96324,2.95763 l 4.61392,0 0,14.01923 -7.21666,0 c -2.30695,0 -3.90408,0.53237 -3.90408,2.95763 0,1.24222 0.59154,2.95764 3.90408,2.95764 l 20.34857,0 c 2.30697,0 3.90409,-0.70983 3.90409,-2.95764 m -11.94887,-33.89456 -6.98003,0 0,6.21105 6.98003,0 0,-6.21105" />
        <path
           inkscape:connector-curvature="0"
           id="path4571"
           style="font-size:54.54985427999999814px;font-style:normal;font-variant:normal;font-weight:bold;font-stretch:normal;line-height:125%;letter-spacing:0px;word-spacing:0px;fill:#ccbbbb;fill-opacity:1;stroke:none;font-family:FreeMono;-inkscape-font-specification:FreeMono Bold"
           d="m 388.2645,955.6313 0,-11.59395 10.70665,0 c 2.18866,0 3.90409,-0.59153 3.90409,-2.95763 0,-2.42526 -1.65627,-2.95764 -3.90409,-2.95764 l -10.70665,0 0,-5.20545 c 0,-2.30696 -0.53238,-3.90409 -2.95764,-3.90409 -2.48441,0 -2.95765,1.83374 -2.95765,3.90409 l 0,5.20545 -2.07034,0 c -2.30696,0 -3.90409,0.53238 -3.90409,2.95764 0,2.3661 1.71544,2.95763 3.90409,2.95763 l 2.07034,0 0,12.71786 c 0,5.02798 4.19986,8.16309 10.94328,8.16309 4.49561,0 13.60514,-2.0112 13.60514,-5.56037 0,-1.65627 -1.2422,-3.01679 -2.83933,-3.01679 -2.07034,0 -3.96325,2.66187 -10.70666,2.66187 -4.37731,0 -5.08714,-1.12389 -5.08714,-3.37171" />
        <path
           inkscape:connector-curvature="0"
           id="path4573"
           style="font-size:54.54985427999999814px;font-style:normal;font-variant:normal;font-weight:bold;font-stretch:normal;line-height:125%;letter-spacing:0px;word-spacing:0px;fill:#ccbbbb;fill-opacity:1;stroke:none;font-family:FreeMono;-inkscape-font-specification:FreeMono Bold"
           d="m 439.73069,945.81194 0,-4.55476 c 0,-2.72103 -0.8873,-3.90409 -2.83934,-3.90409 -1.24221,0 -1.89289,0.53238 -2.24781,1.77458 -2.30695,-1.18305 -5.1463,-1.77458 -8.518,-1.77458 -8.93207,0 -15.14312,5.91529 -15.14312,14.37413 0,5.73782 3.19426,13.19108 15.9121,13.19108 8.87292,0 14.31499,-2.95765 14.31499,-6.21104 0,-1.65628 -1.36052,-3.0168 -2.95765,-3.0168 -2.42526,0 -1.83374,3.31255 -10.94326,3.31255 -6.92088,0 -10.4109,-2.42526 -10.4109,-7.27579 0,-5.02798 3.60832,-8.45885 9.22784,-8.45885 2.60272,0 4.73222,0.53237 6.2702,1.47882 2.1295,1.53797 0.70984,4.96884 4.37731,4.96884 2.48441,0 2.95764,-1.83374 2.95764,-3.90409" />
        <path
           inkscape:connector-curvature="0"
           id="path4575"
           style="font-size:54.54985427999999814px;font-style:normal;font-variant:normal;font-weight:bold;font-stretch:normal;line-height:125%;letter-spacing:0px;word-spacing:0px;fill:#ccbbbb;fill-opacity:1;stroke:none;font-family:FreeMono;-inkscape-font-specification:FreeMono Bold"
           d="m 444.02571,930.01814 c 0,2.42526 1.65629,2.95764 3.90409,2.95764 l 0.94645,0 0,25.0808 -0.35492,0 c -2.1295,0 -3.90409,0.53237 -3.90409,2.95763 0,2.24781 1.65629,2.95764 3.90409,2.95764 l 6.62512,0 c 2.18865,0 3.96324,-0.53238 3.96324,-2.95764 0,-2.42526 -1.71544,-2.95763 -3.96324,-2.95763 l -0.35492,0 0,-10.82498 c 3.37171,-3.2534 4.67308,-3.96323 7.45326,-3.96323 4.61391,0 5.20545,2.1295 5.20545,4.67307 l 0,10.11514 -0.35492,0 c -2.12951,0 -3.96324,0.47322 -3.96324,2.95763 0,2.36611 1.83373,2.95764 3.96324,2.95764 l 6.62511,0 c 2.18865,0 3.90408,-0.59153 3.90408,-2.95764 0,-2.3661 -1.59713,-2.95763 -3.90408,-2.95763 l -0.35492,0 0,-10.88413 c 0,-5.91527 -4.19985,-9.81936 -10.47004,-9.81936 -3.07595,0 -5.73783,1.18306 -8.10394,3.60832 l 0,-13.90092 -6.86173,0 c -2.18865,0 -3.90409,0.53238 -3.90409,2.95765" />
        <path
           inkscape:connector-curvature="0"
           id="path4577"
           style="font-size:54.54985427999999814px;font-style:normal;font-variant:normal;font-weight:bold;font-stretch:normal;line-height:125%;letter-spacing:0px;word-spacing:0px;fill:#ccbbbb;fill-opacity:1;stroke:none;font-family:FreeMono;-inkscape-font-specification:FreeMono Bold"
           d="m 511.25937,960.00861 c 0,-1.65627 -1.2422,-2.95763 -2.83933,-2.95763 -2.30695,0 -6.09274,1.95203 -11.59395,1.95203 -5.20544,0 -8.34055,-1.65627 -9.70107,-5.20544 l 24.13435,0 0,-2.30696 c 0,-8.16308 -6.50681,-14.13752 -15.32057,-14.13752 -8.63631,0 -15.26143,6.03359 -15.26143,13.84175 0,8.04478 6.44767,13.72346 15.61634,13.72346 2.54357,0 14.96566,-0.70984 14.96566,-4.90969 m -23.95689,-11.41649 c 0.8873,-3.19425 4.37732,-5.32375 8.69547,-5.32375 4.31815,0 7.74902,2.07035 8.69546,5.32375 l -17.39093,0" />
        <path
           inkscape:connector-curvature="0"
           id="path4579"
           style="font-size:54.54985427999999814px;font-style:normal;font-variant:normal;font-weight:bold;font-stretch:normal;line-height:125%;letter-spacing:0px;word-spacing:0px;fill:#ccbbbb;fill-opacity:1;stroke:none;font-family:FreeMono;-inkscape-font-specification:FreeMono Bold"
           d="m 515.55444,961.01421 c 0,2.24781 1.59713,2.95764 3.90409,2.95764 l 6.62511,0 c 2.07035,0 3.90408,-0.53238 3.90408,-2.95764 0,-2.48441 -1.83373,-2.95763 -3.90408,-2.95763 l -0.35492,0 0,-10.76582 c 2.78018,-3.01679 4.67307,-4.02239 7.39411,-4.02239 3.66746,0 5.32375,1.36051 5.32375,4.259 l 0,10.52921 c -2.30696,0 -3.60832,1.06475 -3.60832,2.95763 0,1.95204 1.30136,2.95764 3.96324,2.95764 l 5.2646,0 c 2.18865,0 3.90408,-0.59153 3.90408,-2.95764 0,-1.89288 -1.30136,-2.95763 -3.60832,-2.95763 l 0,-10.76582 c 0,-6.5068 -4.61393,-9.93767 -10.5292,-9.93767 -3.25341,0 -5.26461,0.88729 -8.10394,3.60832 l 0,-2.83933 -5.56036,0 c -2.30695,0 -3.96324,0.82814 -3.96324,2.95764 0,1.89288 1.30137,2.89848 3.60833,2.95763 l 0,14.01923 -0.35492,0 c -2.1295,0 -3.90409,0.53237 -3.90409,2.95763" />
      </g>
    </g>
    <g
       id="g3927"
       transform="matrix(1.3250168,0,0,1.3250168,-152.94769,-264.26879)"
       style="fill:#ccbbbb;fill-opacity:1">
      <g
         style="font-size:7.46938276000000023px;font-style:normal;font-variant:normal;font-weight:normal;font-stretch:normal;line-height:125%;letter-spacing:0px;word-spacing:0px;fill:#ccbbbb;fill-opacity:1;stroke:none;font-family:Arial;-inkscape-font-specification:Arial"
         id="text4118">
        <path
           d="m 261.30594,899.91885 c 0,0.90828 0.66926,1.1951 1.57754,1.1951 l 2.89214,0 c 0.88437,0 1.57753,-0.23902 1.57753,-1.1951 0,-1.00388 -0.74096,-1.1951 -1.57753,-1.1951 l -0.14341,0 0,-9.15447 c 0.78876,-0.0717 1.2429,-0.50195 1.2429,-1.1951 0,-0.95608 -0.64535,-1.19511 -1.57753,-1.19511 l -2.4141,0 c -0.93218,0 -1.57754,0.21512 -1.57754,1.19511 0,0.97998 0.69316,1.1951 1.57754,1.1951 l 0.35853,0 0,3.39408 -5.11504,0 0,-3.39408 0.35853,0 c 0.88438,0 1.57754,-0.21512 1.57754,-1.1951 0,-1.00389 -0.74097,-1.19511 -1.57754,-1.19511 l -2.4141,0 c -0.93218,0 -1.57753,0.21512 -1.57753,1.19511 0,0.69315 0.45414,1.12339 1.2429,1.1951 l 0,9.15447 -0.14341,0 c -0.93218,0 -1.57753,0.21512 -1.57753,1.1951 0,0.95608 0.69316,1.1951 1.57753,1.1951 l 2.89214,0 c 0.88438,0 1.57754,-0.23902 1.57754,-1.1951 0,-1.00388 -0.74097,-1.1951 -1.57754,-1.1951 l -0.35853,0 0,-3.37018 5.11504,0 0,3.37018 -0.35853,0 c -0.88438,0 -1.57754,0.21512 -1.57754,1.1951"
           style="font-size:23.90202140999999969px;font-weight:bold;font-family:FreeMono;-inkscape-font-specification:FreeMono Bold;fill:#ccbbbb;fill-opacity:1"
           id="path3016" />
        <path
           d="m 268.80184,898.26961 c 0,1.76875 1.93607,3.22677 4.30236,3.22677 1.41022,0 2.82044,-0.33462 3.96774,-0.93217 l 0,0.54974 2.79654,0 c 0.88437,0 1.57753,-0.23902 1.57753,-1.1951 0,-0.95608 -0.64536,-1.1951 -1.57753,-1.1951 l -0.38244,0 0,-4.82821 c 0,-2.22288 -1.76875,-3.5375 -4.70869,-3.5375 -1.1951,0 -2.96386,0.31073 -4.11115,0.71706 -0.47804,0.16732 -0.71706,0.50195 -0.71706,1.00389 0,0.69316 0.50194,1.219 1.1712,1.219 0.76486,0 2.00777,-0.54974 3.72871,-0.54974 1.52973,0 2.22289,0.35853 2.22289,1.17119 l 0,0.54975 c -0.97998,-0.16731 -1.72095,-0.23902 -2.48581,-0.23902 -3.5853,0 -5.78429,1.95997 -5.78429,4.03944 m 8.294,-0.38243 c -1.31461,0.81267 -2.65312,1.219 -3.94383,1.219 -1.02779,0 -1.81656,-0.40633 -1.81656,-0.93218 0,-0.90827 1.48193,-1.74484 3.10727,-1.74484 0.81267,0 1.69704,0.0956 2.65312,0.26292 l 0,1.1951"
           style="font-size:23.90202140999999969px;font-weight:bold;font-family:FreeMono;-inkscape-font-specification:FreeMono Bold;fill:#ccbbbb;fill-opacity:1"
           id="path3018" />
        <path
           d="m 295.03692,893.77603 0,-1.84045 c 0,-1.0995 -0.35853,-1.57754 -1.14729,-1.57754 -0.50195,0 -0.76487,0.21512 -0.90828,0.71706 -0.93218,-0.47804 -2.07948,-0.71706 -3.44189,-0.71706 -3.6092,0 -6.11892,2.39021 -6.11892,5.80819 0,2.3185 1.29071,5.33015 6.42964,5.33015 3.5853,0 5.78429,-1.1951 5.78429,-2.50971 0,-0.66925 -0.54974,-1.219 -1.1951,-1.219 -0.97998,0 -0.74096,1.33851 -4.42187,1.33851 -2.79654,0 -4.20676,-0.97998 -4.20676,-2.93995 0,-2.03167 1.45803,-3.41798 3.72872,-3.41798 1.05169,0 1.91216,0.21511 2.53361,0.59755 0.86047,0.62145 0.28683,2.00777 1.76875,2.00777 1.00389,0 1.1951,-0.74097 1.1951,-1.57754"
           style="font-size:23.90202140999999969px;font-weight:bold;font-family:FreeMono;-inkscape-font-specification:FreeMono Bold;fill:#ccbbbb;fill-opacity:1"
           id="path3020" />
        <path
           d="m 310.10976,899.91885 c 0,-0.97998 -0.69316,-1.1951 -1.60143,-1.1951 l -0.78877,0 -3.82432,-3.37018 2.82044,-2.2946 0.66925,0 c 0.86047,0 1.57754,-0.23902 1.57754,-1.1951 0,-0.95608 -0.62146,-1.1951 -1.57754,-1.1951 l -2.67702,0 c -0.86048,0 -1.60144,0.19122 -1.60144,1.1951 0,0.33463 0.0956,0.54975 0.38243,0.88438 l -1.88826,1.50582 0,-8.05498 -2.77263,0 c -0.88438,0 -1.57754,0.21512 -1.57754,1.1951 0,0.97998 0.66926,1.1951 1.57754,1.1951 l 0.38243,0 0,10.13446 -0.38243,0 c -0.93218,0 -1.57754,0.21512 -1.57754,1.1951 0,0.78877 0.52585,1.1951 1.57754,1.1951 l 2.77263,0 0,-3.91993 0.43024,-0.33463 2.46191,2.17509 c -0.28683,0.31072 -0.38244,0.54974 -0.38244,0.88437 0,0.78877 0.52585,1.1951 1.57754,1.1951 l 2.82044,0 c 0.86047,0 1.60143,-0.21512 1.60143,-1.1951"
           style="font-size:23.90202140999999969px;font-weight:bold;font-family:FreeMono;-inkscape-font-specification:FreeMono Bold;fill:#ccbbbb;fill-opacity:1"
           id="path3022" />
        <path
           d="m 322.88801,892.81995 0,-0.88437 c 0,-1.0995 -0.35854,-1.57754 -1.1234,-1.57754 -0.35853,0 -0.57365,0.16732 -0.76486,0.62146 -0.93218,-0.43024 -1.91217,-0.62146 -3.08336,-0.62146 -2.86824,0 -4.92382,1.36242 -4.92382,3.27458 0,1.88826 1.41022,2.84434 4.7565,3.20287 0.71706,0.0717 3.01166,0.23902 3.01166,1.24291 0,0.54974 -1.26681,1.02778 -2.79654,1.02778 -1.29071,0 -2.2946,-0.31072 -2.98775,-0.93218 -0.21512,-0.71706 -0.59755,-1.05168 -1.21901,-1.05168 -1.00388,0 -1.219,0.71706 -1.219,1.60143 l 0,0.78877 c 0,0.83657 0.19122,1.57753 1.219,1.57753 0.31073,0 0.50195,-0.0717 0.76487,-0.28682 0.95608,0.45413 2.17508,0.69315 3.5375,0.69315 3.08336,0 5.33015,-1.41022 5.33015,-3.37018 0,-1.09949 -0.62146,-2.12728 -1.67314,-2.70093 -2.03167,-1.14729 -6.09502,-0.74096 -6.09502,-1.84045 0,-0.43024 1.1473,-0.83657 2.3663,-0.83657 3.15507,0 2.3424,1.64923 3.70481,1.64923 0.97999,0 1.19511,-0.66925 1.19511,-1.57753"
           style="font-size:23.90202140999999969px;font-weight:bold;font-family:FreeMono;-inkscape-font-specification:FreeMono Bold;fill:#ccbbbb;fill-opacity:1"
           id="path3024" />
        <path
           d="m 324.93424,891.86387 c 0,0.97998 0.66926,1.1951 1.57754,1.1951 l 0.38243,0 0,10.44518 -0.38243,0 c -0.88438,0 -1.57754,0.21512 -1.57754,1.19511 0,0.97998 0.69316,1.1951 1.57754,1.1951 l 4.15895,0 c 0.86047,0 1.57753,-0.23902 1.57753,-1.1951 0,-0.97999 -0.62145,-1.19511 -1.57753,-1.19511 l -1.38632,0 0,-3.96773 c 1.2429,0.95608 2.29459,1.33851 3.70481,1.33851 3.32238,0 5.78429,-2.17508 5.78429,-5.11503 0,-3.08336 -2.48581,-5.40186 -5.83209,-5.40186 -1.48193,0 -2.48581,0.38244 -3.65701,1.38632 l 0,-1.07559 -2.77263,0 c -0.88438,0 -1.57754,0.21512 -1.57754,1.1951 m 11.44907,3.75262 c 0,1.67314 -1.48193,2.86824 -3.5375,2.86824 -2.10338,0 -3.5614,-1.1951 -3.5614,-2.89214 0,-1.57754 1.38632,-2.84434 3.5614,-2.84434 2.12728,0 3.5375,1.2429 3.5375,2.86824"
           style="font-size:23.90202140999999969px;font-weight:bold;font-family:FreeMono;-inkscape-font-specification:FreeMono Bold;fill:#ccbbbb;fill-opacity:1"
           id="path3026" />
        <path
           d="m 340.46122,898.26961 c 0,1.76875 1.93607,3.22677 4.30237,3.22677 1.41021,0 2.82043,-0.33462 3.96773,-0.93217 l 0,0.54974 2.79654,0 c 0.88437,0 1.57753,-0.23902 1.57753,-1.1951 0,-0.95608 -0.64535,-1.1951 -1.57753,-1.1951 l -0.38244,0 0,-4.82821 c 0,-2.22288 -1.76875,-3.5375 -4.70869,-3.5375 -1.1951,0 -2.96386,0.31073 -4.11115,0.71706 -0.47804,0.16732 -0.71706,0.50195 -0.71706,1.00389 0,0.69316 0.50194,1.219 1.1712,1.219 0.76486,0 2.00777,-0.54974 3.72871,-0.54974 1.52973,0 2.22289,0.35853 2.22289,1.17119 l 0,0.54975 c -0.97998,-0.16731 -1.72095,-0.23902 -2.48581,-0.23902 -3.5853,0 -5.78429,1.95997 -5.78429,4.03944 m 8.294,-0.38243 c -1.31461,0.81267 -2.65312,1.219 -3.94383,1.219 -1.02779,0 -1.81655,-0.40633 -1.81655,-0.93218 0,-0.90827 1.48192,-1.74484 3.10726,-1.74484 0.81267,0 1.69704,0.0956 2.65312,0.26292 l 0,1.1951"
           style="font-size:23.90202140999999969px;font-weight:bold;font-family:FreeMono;-inkscape-font-specification:FreeMono Bold;fill:#ccbbbb;fill-opacity:1"
           id="path3028" />
        <path
           d="m 366.6963,893.77603 0,-1.84045 c 0,-1.0995 -0.35853,-1.57754 -1.1473,-1.57754 -0.50194,0 -0.76486,0.21512 -0.90827,0.71706 -0.93218,-0.47804 -2.07948,-0.71706 -3.4419,-0.71706 -3.6092,0 -6.11891,2.39021 -6.11891,5.80819 0,2.3185 1.29071,5.33015 6.42964,5.33015 3.5853,0 5.78429,-1.1951 5.78429,-2.50971 0,-0.66925 -0.54975,-1.219 -1.1951,-1.219 -0.97998,0 -0.74097,1.33851 -4.42188,1.33851 -2.79653,0 -4.20675,-0.97998 -4.20675,-2.93995 0,-2.03167 1.45802,-3.41798 3.72871,-3.41798 1.05169,0 1.91217,0.21511 2.53362,0.59755 0.86047,0.62145 0.28682,2.00777 1.76875,2.00777 1.00388,0 1.1951,-0.74097 1.1951,-1.57754"
           style="font-size:23.90202140999999969px;font-weight:bold;font-family:FreeMono;-inkscape-font-specification:FreeMono Bold;fill:#ccbbbb;fill-opacity:1"
           id="path3030" />
        <path
           d="m 381.2672,899.51252 c 0,-0.66926 -0.50195,-1.1951 -1.1473,-1.1951 -0.93218,0 -2.46191,0.78876 -4.6848,0.78876 -2.10337,0 -3.37018,-0.66926 -3.91993,-2.10338 l 9.75203,0 0,-0.93217 c 0,-3.29848 -2.62923,-5.71259 -6.19063,-5.71259 -3.48969,0 -6.16672,2.43801 -6.16672,5.59308 0,3.25067 2.60533,5.54526 6.31014,5.54526 1.02778,0 6.04721,-0.28682 6.04721,-1.98386 m -9.68032,-4.61309 c 0.35853,-1.29071 1.76875,-2.15118 3.5136,-2.15118 1.74484,0 3.13116,0.83657 3.51359,2.15118 l -7.02719,0"
           style="font-size:23.90202140999999969px;font-weight:bold;font-family:FreeMono;-inkscape-font-specification:FreeMono Bold;fill:#ccbbbb;fill-opacity:1"
           id="path3032" />
      </g>
      <g
         style="font-size:7.46938276000000023px;font-style:normal;font-variant:normal;font-weight:normal;font-stretch:normal;line-height:125%;letter-spacing:0px;word-spacing:0px;fill:#ccbbbb;fill-opacity:1;stroke:none;font-family:Arial;-inkscape-font-specification:Arial"
         id="text4122">
        <path
           d="m 405.58206,899.91885 c 0,-0.95608 -0.64535,-1.1951 -1.57753,-1.1951 l -0.31073,0 c -1.00388,-1.60143 -1.88826,-2.70093 -3.01165,-3.68091 1.74485,-0.95608 2.58142,-2.10338 2.58142,-3.60921 0,-2.50971 -2.15119,-4.25456 -5.25845,-4.25456 l -5.33015,0 c -0.93218,0 -1.57753,0.21512 -1.57753,1.19511 0,0.97998 0.69316,1.1951 1.57753,1.1951 l 0.35853,0 0,9.15447 -0.35853,0 c -0.88437,0 -1.57753,0.21512 -1.57753,1.1951 0,0.50194 0.23902,1.1951 1.57753,1.1951 l 3.58531,0 c 0.93217,0 1.57753,-0.28682 1.57753,-1.1951 0,-0.95608 -0.64536,-1.1951 -1.57753,-1.1951 l -0.83658,0 0,-2.91605 2.2946,0 c 1.00388,0.35853 3.20287,2.98776 4.39797,5.30625 l 1.88826,0 c 0.93218,0 1.57753,-0.28682 1.57753,-1.1951 m -10.15836,-6.50135 0,-3.84822 2.67703,0 c 1.52973,0 2.62922,0.76486 2.62922,1.79265 0,1.1951 -1.48192,2.05557 -3.48969,2.05557 l -1.81656,0"
           style="font-size:23.90202140999999969px;font-weight:bold;font-family:FreeMono;-inkscape-font-specification:FreeMono Bold;fill:#ccbbbb;fill-opacity:1"
           id="path3035" />
        <path
           d="m 418.2647,899.51252 c 0,-0.66926 -0.50194,-1.1951 -1.1473,-1.1951 -0.93217,0 -2.46191,0.78876 -4.68479,0.78876 -2.10338,0 -3.37019,-0.66926 -3.91993,-2.10338 l 9.75202,0 0,-0.93217 c 0,-3.29848 -2.62923,-5.71259 -6.19062,-5.71259 -3.48969,0 -6.16672,2.43801 -6.16672,5.59308 0,3.25067 2.60532,5.54526 6.31013,5.54526 1.02778,0 6.04721,-0.28682 6.04721,-1.98386 m -9.68032,-4.61309 c 0.35853,-1.29071 1.76875,-2.15118 3.5136,-2.15118 1.74484,0 3.13116,0.83657 3.5136,2.15118 l -7.0272,0"
           style="font-size:23.90202140999999969px;font-weight:bold;font-family:FreeMono;-inkscape-font-specification:FreeMono Bold;fill:#ccbbbb;fill-opacity:1"
           id="path3037" />
        <path
           d="m 422.82065,904.69926 c 0,0.90827 0.64535,1.1951 1.57753,1.1951 l 2.67703,0 c 2.60532,0 4.56529,-1.76876 4.56529,-4.30237 l 0,-8.53302 0.38243,0 c 0.88437,0 1.57753,-0.21512 1.57753,-1.1951 0,-0.95608 -0.64535,-1.1951 -1.57753,-1.1951 l -2.77264,0 0,0.86047 c -0.93217,-0.78876 -2.07947,-1.1951 -3.37018,-1.1951 -3.20287,0 -5.64088,2.39021 -5.64088,5.56917 0,3.15507 2.43801,5.54527 5.64088,5.54527 1.2429,0 2.27069,-0.35853 3.37018,-1.1712 l 0,1.31461 c 0,1.24291 -0.88437,1.91216 -2.24679,1.91216 l -2.60532,0 c -0.93218,0 -1.57753,0.21512 -1.57753,1.19511 m 3.10726,-11.97492 c 1.86436,0 3.32238,1.41022 3.32238,3.20287 0,1.72095 -1.50583,3.13117 -3.32238,3.13117 -1.81655,0 -3.29848,-1.41022 -3.29848,-3.17897 0,-1.74485 1.48193,-3.15507 3.29848,-3.15507"
           style="font-size:23.90202140999999969px;font-weight:bold;font-family:FreeMono;-inkscape-font-specification:FreeMono Bold;fill:#ccbbbb;fill-opacity:1"
           id="path3039" />
        <path
           d="m 446.92845,899.51252 c 0,-0.66926 -0.50194,-1.1951 -1.14729,-1.1951 -0.93218,0 -2.46191,0.78876 -4.6848,0.78876 -2.10338,0 -3.37019,-0.66926 -3.91993,-2.10338 l 9.75202,0 0,-0.93217 c 0,-3.29848 -2.62922,-5.71259 -6.19062,-5.71259 -3.48969,0 -6.16672,2.43801 -6.16672,5.59308 0,3.25067 2.60532,5.54526 6.31013,5.54526 1.02779,0 6.04721,-0.28682 6.04721,-1.98386 m -9.68032,-4.61309 c 0.35853,-1.29071 1.76876,-2.15118 3.5136,-2.15118 1.74485,0 3.13117,0.83657 3.5136,2.15118 l -7.0272,0"
           style="font-size:23.90202140999999969px;font-weight:bold;font-family:FreeMono;-inkscape-font-specification:FreeMono Bold;fill:#ccbbbb;fill-opacity:1"
           id="path3041" />
        <path
           d="m 448.66396,899.91885 c 0,0.90828 0.64536,1.1951 1.57754,1.1951 l 2.67702,0 c 0.83657,0 1.57754,-0.21512 1.57754,-1.1951 0,-1.00388 -0.74097,-1.1951 -1.57754,-1.1951 l -0.14341,0 0,-4.35017 c 1.12339,-1.219 1.88826,-1.62533 2.98775,-1.62533 1.48193,0 2.15118,0.54974 2.15118,1.72094 l 0,4.25456 c -0.93217,0 -1.45802,0.43024 -1.45802,1.1951 0,0.78877 0.52585,1.1951 1.60144,1.1951 l 2.12728,0 c 0.88437,0 1.57753,-0.23902 1.57753,-1.1951 0,-0.76486 -0.52585,-1.1951 -1.45802,-1.1951 l 0,-4.35017 c 0,-2.62922 -1.86436,-4.01554 -4.25456,-4.01554 -1.31461,0 -2.12728,0.35853 -3.27458,1.45803 l 0,-1.1473 -2.24679,0 c -0.93218,0 -1.60144,0.33463 -1.60144,1.1951 0,0.76486 0.52585,1.1712 1.45803,1.1951 l 0,5.66478 -0.14341,0 c -0.86048,0 -1.57754,0.21512 -1.57754,1.1951"
           style="font-size:23.90202140999999969px;font-weight:bold;font-family:FreeMono;-inkscape-font-specification:FreeMono Bold;fill:#ccbbbb;fill-opacity:1"
           id="path3043" />
        <path
           d="m 474.54051,892.81995 0,-0.88437 c 0,-1.0995 -0.35853,-1.57754 -1.12339,-1.57754 -0.35853,0 -0.57365,0.16732 -0.76487,0.62146 -0.93217,-0.43024 -1.91216,-0.62146 -3.08336,-0.62146 -2.86824,0 -4.92381,1.36242 -4.92381,3.27458 0,1.88826 1.41022,2.84434 4.7565,3.20287 0.71706,0.0717 3.01165,0.23902 3.01165,1.24291 0,0.54974 -1.26681,1.02778 -2.79653,1.02778 -1.29071,0 -2.2946,-0.31072 -2.98776,-0.93218 -0.21511,-0.71706 -0.59755,-1.05168 -1.219,-1.05168 -1.00388,0 -1.219,0.71706 -1.219,1.60143 l 0,0.78877 c 0,0.83657 0.19122,1.57753 1.219,1.57753 0.31073,0 0.50194,-0.0717 0.76487,-0.28682 0.95608,0.45413 2.17508,0.69315 3.5375,0.69315 3.08335,0 5.33015,-1.41022 5.33015,-3.37018 0,-1.09949 -0.62146,-2.12728 -1.67315,-2.70093 -2.03167,-1.14729 -6.09501,-0.74096 -6.09501,-1.84045 0,-0.43024 1.1473,-0.83657 2.3663,-0.83657 3.15506,0 2.3424,1.64923 3.70481,1.64923 0.97998,0 1.1951,-0.66925 1.1951,-1.57753"
           style="font-size:23.90202140999999969px;font-weight:bold;font-family:FreeMono;-inkscape-font-specification:FreeMono Bold;fill:#ccbbbb;fill-opacity:1"
           id="path3045" />
        <path
           d="m 476.58675,887.39419 c 0,0.97998 0.66926,1.1951 1.57754,1.1951 l 0.38243,0 0,10.13446 -0.38243,0 c -0.93218,0 -1.57754,0.21512 -1.57754,1.1951 0,0.95608 0.69316,1.1951 1.57754,1.1951 l 2.77263,0 0,-0.83657 c 1.2429,0.86047 2.19899,1.1712 3.60921,1.1712 3.5853,0 5.87989,-2.43801 5.87989,-5.54527 0,-3.08336 -2.22289,-5.56917 -5.9038,-5.56917 -1.43412,0 -2.55751,0.38243 -3.5853,1.1951 l 0,-5.33015 -2.77263,0 c -0.88438,0 -1.57754,0.21512 -1.57754,1.1951 m 7.91157,5.33015 c 2.12728,0 3.5375,1.38632 3.5375,3.15507 0,1.84045 -1.45802,3.17897 -3.5375,3.17897 -2.10337,0 -3.5614,-1.31461 -3.5614,-3.20287 0,-1.72095 1.33852,-3.13117 3.5614,-3.13117"
           style="font-size:23.90202140999999969px;font-weight:bold;font-family:FreeMono;-inkscape-font-specification:FreeMono Bold;fill:#ccbbbb;fill-opacity:1"
           id="path3047" />
        <path
           d="m 499.83408,893.05897 0.23902,0 0.83657,0 0,4.35017 c -1.2429,1.31461 -1.84046,1.62534 -3.03556,1.62534 -1.43412,0 -2.10338,-0.54975 -2.10338,-1.72095 l 0,-6.64476 -2.77263,0 c -0.93218,0 -1.57753,0.21512 -1.57753,1.1951 0,0.69316 0.52584,1.1951 1.31461,1.1951 l 0.64535,0 0,4.32627 c 0,2.62922 1.84046,4.03944 4.25456,4.03944 1.31461,0 2.07948,-0.33463 3.27458,-1.45802 l 0,1.14729 2.27069,0 c 0.83657,0 1.57753,-0.21512 1.57753,-1.1951 0,-0.76486 -0.52584,-1.1951 -1.45802,-1.1951 l 0,-8.05498 -3.22677,0 c -0.88438,0 -1.57753,0.21512 -1.57753,1.1951 0,0.45414 0.26292,1.1951 1.33851,1.1951"
           style="font-size:23.90202140999999969px;font-weight:bold;font-family:FreeMono;-inkscape-font-specification:FreeMono Bold;fill:#ccbbbb;fill-opacity:1"
           id="path3049" />
        <path
           d="m 516.07812,890.38195 c -1.1712,0 -2.07948,0.40633 -3.99164,1.84045 l 0,-1.55363 -3.22677,0 c -1.05169,0 -1.57754,0.45414 -1.57754,1.1951 0,0.90828 0.64536,1.1951 1.57754,1.1951 l 0.83657,0 0,5.66478 -1.38632,0 c -0.93218,0 -1.57753,0.21512 -1.57753,1.1951 0,0.90828 0.66926,1.1951 1.57753,1.1951 l 7.0989,0 c 0.88438,0 1.60144,-0.23902 1.60144,-1.1951 0,-0.97998 -0.69316,-1.1951 -1.60144,-1.1951 l -3.32238,0 0,-3.5136 c 2.27069,-1.86435 3.17897,-2.438 3.94383,-2.438 0.78877,0 1.0756,0.86047 1.86436,0.86047 0.64536,0 1.1951,-0.54975 1.1951,-1.219 0,-1.0995 -1.76875,-2.03167 -3.01165,-2.03167"
           style="font-size:23.90202140999999969px;font-weight:bold;font-family:FreeMono;-inkscape-font-specification:FreeMono Bold;fill:#ccbbbb;fill-opacity:1"
           id="path3051" />
        <path
           d="m 523.14378,904.69926 c 0,0.90827 0.64535,1.1951 1.57753,1.1951 l 2.67702,0 c 2.60532,0 4.56529,-1.76876 4.56529,-4.30237 l 0,-8.53302 0.38243,0 c 0.88438,0 1.57754,-0.21512 1.57754,-1.1951 0,-0.95608 -0.64536,-1.1951 -1.57754,-1.1951 l -2.77263,0 0,0.86047 c -0.93218,-0.78876 -2.07948,-1.1951 -3.37019,-1.1951 -3.20286,0 -5.64087,2.39021 -5.64087,5.56917 0,3.15507 2.43801,5.54527 5.64087,5.54527 1.24291,0 2.2707,-0.35853 3.37019,-1.1712 l 0,1.31461 c 0,1.24291 -0.88438,1.91216 -2.24679,1.91216 l -2.60532,0 c -0.93218,0 -1.57753,0.21512 -1.57753,1.19511 m 3.10726,-11.97492 c 1.86435,0 3.32238,1.41022 3.32238,3.20287 0,1.72095 -1.50583,3.13117 -3.32238,3.13117 -1.81655,0 -3.29848,-1.41022 -3.29848,-3.17897 0,-1.74485 1.48193,-3.15507 3.29848,-3.15507"
           style="font-size:23.90202140999999969px;font-weight:bold;font-family:FreeMono;-inkscape-font-specification:FreeMono Bold;fill:#ccbbbb;fill-opacity:1"
           id="path3053" />
      </g>
    </g>
    <path
       style="fill:#ccbbbb;fill-opacity:1;fill-rule:nonzero;stroke:none"
       d="M 234.25 46.0625 C 192.55128 46.0941 158.75951 69.33213 158.78125 98 C 158.79965 122.17651 182.78541 142.61455 215.40625 147.9375 C 222.2081 149.0474 226.04931 148.98833 230.09375 149.1875 C 230.94453 149.2299 231.66183 150.10897 231.625 150.875 C 231.5882 151.64103 230.78828 152.47983 229.9375 152.4375 C 223.88646 152.13643 223.13269 152.17479 218.625 151.75 L 218.625 167.03125 L 210.96875 167.0625 C 207.99995 167.0746 205.42509 169.44225 205.59375 172.40625 L 211.90625 283.34375 C 212.0749 286.30776 214.31994 288.47651 217.28125 288.6875 C 269.50128 292.40807 322.3685 292.62918 375.90625 288.5625 C 378.86651 288.33764 381.08634 286.18305 381.25 283.21875 L 387.375 172.28125 C 387.53866 169.31698 385.00002 166.9375 382.03125 166.9375 L 375.90625 166.9375 L 375.875 147.21875 C 374.05148 147.42941 371.87057 147.53284 368.84375 147.53125 C 367.96751 147.53079 367.14871 146.65894 367.15625 145.875 C 367.16425 145.09107 367.99893 144.26373 368.875 144.28125 C 372.21437 144.34805 374.42619 144.32895 376.1875 143.90625 C 399.9449 138.2045 416.79449 123.12844 416.78125 105.65625 C 416.76415 83.06946 388.56139 64.78615 353.8125 64.8125 C 335.59029 64.8263 319.17388 69.88343 307.6875 77.9375 C 309.87783 80.9014 311.7369 83.16039 313.8125 84.6875 C 315.92764 86.2437 318.29174 87.13001 321.96875 87.3125 C 322.81954 87.3547 323.53683 88.23397 323.5 89 C 323.4632 89.76604 322.66328 90.60476 321.8125 90.5625 C 317.65097 90.35582 314.36149 89.38377 311.875 87.3125 C 308.84222 84.78616 307.3295 83.77796 304.65625 79.15625 C 293.50632 59.87941 266.32929 46.03818 234.25 46.0625 z M 263.125 192.96875 L 274.28125 193.09375 C 276.8234 193.12435 278.83725 195.17655 278.8125 197.71875 L 278.15625 266.625 C 278.13145 269.16721 276.04216 271.21813 273.5 271.1875 L 262.375 271.0625 C 259.83285 271.0319 257.81901 268.97971 257.84375 266.4375 L 258.5 197.53125 C 258.5248 194.98905 260.58285 192.93812 263.125 192.96875 z M 321.84375 193.5625 C 335.9778 193.70293 347.27314 210.98646 347.0625 232.1875 C 346.85186 253.38855 335.25905 270.45292 321.125 270.3125 C 306.99097 270.17207 295.69561 252.88856 295.90625 231.6875 C 296.11689 210.48646 307.70972 193.42207 321.84375 193.5625 z "
       transform="translate(0,452.36218)"
       id="path3021" />
    <path
       style="fill:#ccbbbb;fill-opacity:1;fill-rule:nonzero;stroke:none"
       d="M 98.96875 263.65625 C 94.666599 263.78043 89.369479 265.37976 87.65625 269.5625 L 77.28125 294.875 C 74.69327 301.1934 81.51976 308.50543 85.09375 309.96875 L 194.5 354.75 C 195.69855 353.5552 197.36207 352.79468 199.1875 352.75 C 202.96739 352.6575 206.12619 355.72004 206.21875 359.5 C 206.68043 359.70327 207.17121 359.93367 207.5625 360.09375 C 211.13689 361.55603 215.19382 359.82431 216.65625 356.25 L 221.0625 345.46875 L 272.0625 366.34375 L 287.375 359.625 L 225.65625 334.34375 L 230.0625 323.5625 C 231.52494 319.98816 229.82853 315.88958 226.25 314.4375 L 224.90625 313.90625 C 223.68729 315.33906 221.87237 316.26285 219.84375 316.3125 C 216.06384 316.405 212.7957 313.05222 212.875 308.9375 C 175.17031 293.31675 137.87758 278.2325 103.78125 264.3125 C 102.67095 263.85922 100.92427 263.5998 98.96875 263.65625 z M 98.71875 276.4375 C 100.83475 276.3987 103.01454 276.63838 104.6875 277.3125 C 140.13088 291.59436 173.58954 305.43372 208.96875 319.875 C 209.99334 320.32696 210.48126 321.75345 210.09375 322.6875 C 209.70623 323.62155 208.34929 324.29818 207.3125 323.875 L 103.4375 281.5 L 103.40625 281.5 C 99.0379 279.72754 95.4885 280.71447 93.46875 283.28125 C 92.70555 284.25115 91.09059 284.50592 90.25 283.8125 C 89.40941 283.11908 89.34035 281.45722 90.15625 280.53125 C 92.73123 277.6089 95.95695 276.48812 98.71875 276.4375 z M 95.34375 297.0625 C 95.631223 297.04494 95.91517 297.09475 96.21875 297.21875 C 131.57805 311.66113 165.10771 325.4298 200.46875 339.90625 C 201.52416 340.33833 202.07491 341.79523 201.6875 342.75 C 201.30008 343.70478 199.89909 344.36973 198.84375 343.9375 L 94.78125 301.3125 C 93.59092 300.82498 93.09407 299.42327 93.46875 298.4375 C 93.736425 297.73324 94.48133 297.11518 95.34375 297.0625 z M 347.625 384.3125 L 331.28125 390.59375 L 431.71875 431.71875 C 432.48795 435.04027 441.39905 441.01298 447.78125 443.9375 C 451.80675 445.78213 456.00015 447.28089 460.09375 448.96875 C 462.90165 442.026 465.73915 435.07995 468.59375 428.15625 C 464.48615 426.50254 460.5033 424.58582 456.3125 423.15625 C 450.9791 421.33695 440.6036 418.87454 436.25 420.59375 L 347.625 384.3125 z "
       transform="translate(0,452.36218)"
       id="use3078" />
    <g
       id="use3083"
       transform="matrix(0.99372469,-0.43404267,0.43404267,0.99372469,-212.28056,431.90379)">
      <path
         sodipodi:nodetypes="sssccssccasssssscssccssccssccsssscsscscscsscssssacssssss"
         inkscape:connector-curvature="0"
         id="path3858"
         transform="matrix(0.92218368,0.00169429,-0.00169429,0.92218368,-452.50678,78.944729)"
         d="m 900.1875,443.75 -10.0625,0.0312 c -2.06742,0.006 -3.71875,1.65132 -3.71875,3.71875 l 0,6.25 -14.875,9.1875 C 822.66476,464.22979 769.15433,465.92087 718,467.4687 c -3.86018,0.1168 -6.954,3.13809 -6.9375,7 l 0.0312,7.3125 c -4.39379,0.1562 -8.77864,0.31969 -13.125,0.40625 0.97303,-5.55653 -0.58392,-11.07117 -3.84375,-15.125 -3.90015,-4.85012 -9.63745,-7.59553 -16.6875,-8.375 -1.77081,-0.19579 -3.69096,-0.27617 -5.65625,-0.15625 -1.96529,0.11992 -3.96613,0.45055 -5.90625,1.0625 -3.88023,1.22388 -7.73646,3.96623 -9.0625,8.53125 -1.13246,3.89857 -1.08251,8.27896 1.21875,12 2.30126,3.72104 6.66466,6.31703 12.8125,7.25 5.20014,0.78916 10.38378,1.20262 15.5625,1.375 -0.42767,0.29707 -0.71554,0.66894 -1.1875,0.9375 -3.16064,1.79846 -7.2586,2.82575 -11.21875,3 -16.17998,0.71196 -33.27007,1.52537 -49.75,0.90625 l -0.21875,6.5 c 16.86139,0.63344 34.08845,-0.19511 50.25,-0.90625 4.85233,-0.21352 9.86708,-1.40312 14.15625,-3.84375 2.80877,-1.59825 5.26565,-3.83995 7.0625,-6.625 5.2263,-0.0543 10.41482,-0.22176 15.59375,-0.40625 l 0.0312,4.875 c 0.0248,3.86187 3.07592,6.91592 6.9375,6.96875 50.79894,0.69498 105.04842,1.35105 153.5625,3.96875 l 14.875,9.125 0.0312,6.25 c 0.0103,2.06745 1.65133,3.72517 3.71875,3.71875 l 10.0625,-0.0312 c 2.06742,-0.006 3.75283,-1.65128 3.75,-3.71875 l -0.0312,-22.84375 127.21875,-0.25 c 2.4965,-0.005 4.5,-2.00347 4.5,-4.5 l 0,-4.78125 31.7188,-0.0625 c 2.1455,-0.004 8.1914,-1.72948 8.1874,-3.875 0,-2.14552 -6.0732,-3.84798 -8.2187,-3.84375 l -31.7187,0.0625 0,-4.78125 c 0,-2.49653 -2.0348,-4.50429 -4.5313,-4.5 L 904,470.3125 903.9375,447.46875 c -0.006,-2.06743 -1.68258,-3.72517 -3.75,-3.71875 z M 674.5,465.03125 c 0.76399,0.0155 1.53642,0.0461 2.25,0.125 5.62398,0.62179 9.55318,2.43804 12.375,6.0625 2.29548,2.94841 3.4456,6.73828 2.3125,10.96875 -6.61366,-0.0371 -13.17428,-0.27106 -19.625,-1.25 -4.90375,-0.74418 -7.17641,-2.43226 -8.28125,-4.21875 -1.10484,-1.78649 -1.24006,-4.12594 -0.46875,-6.78125 0.62042,-2.13582 2.1484,-3.33567 4.75,-4.15625 1.3008,-0.41029 2.83201,-0.6234 4.375,-0.71875 0.77149,-0.0477 1.54851,-0.0468 2.3125,-0.0312 z"
         style="fill:#ccbbbb;fill-opacity:1;fill-rule:nonzero;stroke:none" />
    </g>
  </g>
</svg>
